<svg width="185" height="79" viewBox="0 0 185 79" fill="none" xmlns="http://www.w3.org/2000/svg">
<g opacity="0.9">
<path d="M161.132 65.6476L161.368 65.4314L162.908 64.0172L162.945 63.984H162.994H184.631L174.709 57.4708L174.653 57.4336V57.3666V53.2893V53.2349L174.693 53.1978L184.794 43.9245L184.518 43.8957C184.497 43.8934 182.398 43.6817 179.036 43.6817C172.154 43.6817 162.032 44.5282 152.89 48.5617L152.877 48.5672L152.863 48.57L150.978 48.9265L150.948 48.932L150.918 48.9231L136.99 44.6928L136.85 44.6501L136.913 44.5193L143.444 30.9675L143.295 30.9303C139.398 29.963 131.147 29.8587 127.78 29.8587C126.69 29.8587 125.978 29.8693 125.861 29.8709C112.122 30.2163 102.287 37.3348 100.454 38.7579L100.32 38.8626L100.259 38.7041C99.6682 37.1524 97.3385 31.5712 92.1922 24.9C85.5301 16.2642 77.0586 9.48772 67.0139 4.75959C67.0028 4.75516 65.1844 4.03061 62.1116 3.08377L62.0652 3.06935L62.0435 3.0627C58.2214 1.88856 54.2883 0.92398 50.3518 0.196661L50.0922 0.148438L50.2184 0.378493C50.2742 0.480495 55.8705 10.76 60.7533 24.4997L60.7695 24.5463L60.7494 24.5912C60.6958 24.7126 60.641 24.8435 60.5841 24.9865L60.5266 25.1301L60.3971 25.0447C59.2308 24.273 48.5139 17.4954 31.5576 17.0907L31.3672 17.0863L31.4381 17.262C31.4593 17.3147 33.6378 22.7579 36.0758 29.8948L36.1551 30.1265L35.92 30.0544C31.8256 28.7977 23.6053 26.6889 14.5583 26.6884C11.4117 26.6884 8.41764 26.9511 5.65802 27.4706L5.58656 27.4855L5.55976 27.5504C5.51063 27.6707 5.60889 27.8132 6.91752 29.6575C10.1037 34.1478 17.5658 44.6634 20.3053 53.0121L20.3427 53.1257L20.2299 53.1679L14.9183 55.1464L14.8971 55.1541H14.8742H5.41293L5.58265 60.1977L5.58656 60.3263H5.45648H2.81242V64.3399V64.4646H2.68681H0.208008V78.8524H181.393V65.6476H161.453H161.132ZM38.8734 56.479L28.3474 53.072L24.4919 53.0659L24.268 53.0653L24.3847 52.8757L26.3772 49.646L26.4163 49.5823L26.4917 49.5867C29.9637 49.7824 35.9089 50.3212 36.7229 51.7348C36.9093 52.0591 37.1148 52.4355 37.3504 52.8862L37.3917 52.9727C37.4174 53.0265 37.4431 53.0803 37.4693 53.1335L37.4699 53.1329L37.5357 53.2433C38.1035 54.3481 38.6596 55.5189 39.0264 56.3072L39.1469 56.5666L38.8734 56.479ZM66.4339 62.2233H62.1948H62.1724L62.1512 62.2155L52.6648 58.7131L46.8536 58.6981L46.6665 58.6976L46.7374 58.5257L48.8254 53.4816L48.8656 53.3846L48.9684 53.4068L65.1403 56.9164L65.2146 56.9325L65.2346 57.0051C66.0056 59.7603 66.3937 61.3613 66.5567 62.0703L66.5919 62.2228H66.4339V62.2233ZM122.473 62.2233H72.0547H71.6684H68.2438H68.1143L68.1182 62.0947L68.1729 60.1733L68.1791 59.9698L68.3588 60.0674L71.9068 61.9894L71.9553 62.016L71.9799 61.9982L72.0195 61.9694C72.5203 61.608 77.0653 58.3201 82.4378 54.2588L82.4941 54.2162L82.56 54.2422L82.7068 54.2999L99.9513 58.4382L116.889 56.2939L116.951 56.2861L116.995 56.331L122.562 62.0127L122.769 62.2244H122.473V62.2233ZM141.603 62.2233H128.58H128.381L128.467 62.0448L134.581 49.3583L134.687 49.1371L134.805 49.3528L137.902 55.041L137.953 55.1336L137.869 55.1985L131.802 59.9322H140.491H140.566L140.601 59.9976L141.713 62.0398L141.814 62.2239H141.603V62.2233ZM157.439 65.499L146.925 62.2283L146.906 62.2228H145.441H145.271L145.321 62.0614L146.211 59.1699L146.238 59.0818H146.332H155.092H155.179L155.21 59.1621L157.594 65.3355L157.687 65.5761L157.439 65.499Z" fill="#FF6B13"/>
<path d="M184.967 64.1321L174.696 57.39V53.3127L185 43.8525L184.448 43.7949C184.278 43.7766 167.219 42.0903 152.757 48.4709L150.872 48.8274L136.944 44.5971L143.541 30.9072L143.242 30.8329C138.243 29.5917 126.287 29.7613 125.776 29.7696C111.955 30.1172 102.043 37.325 100.294 38.6832C99.2251 35.8781 90.9055 15.9295 66.9846 4.66937C66.9499 4.65551 65.131 3.93151 62.066 2.98689C62.0521 2.9636 62.0415 2.94587 62.0387 2.94088L61.9979 2.96582C59.0675 2.06499 55.0154 0.969021 50.2928 0.0959064L49.7742 0L50.026 0.460119C50.127 0.64472 55.7317 10.9968 60.5531 24.5631C60.4989 24.6856 60.4431 24.8181 60.3861 24.9628C59.4287 24.3297 48.5594 17.3952 31.4796 16.9883L31.0989 16.9795L31.2396 17.3304C31.2882 17.4518 33.4526 22.8651 35.875 29.9575C30.9967 28.4602 17.8619 25.0542 5.55274 27.3704L5.41316 27.3997L5.3618 27.5261C5.28587 27.7124 5.28587 27.7124 6.73296 29.7519C9.92748 34.2538 17.3717 44.7462 20.104 53.0732L14.7924 55.0517H5.20101L5.37464 60.2244H2.60497V64.3627H0V79H181.437V65.5457H161.371L162.911 64.1316L184.967 64.1321ZM160.631 65.5463H160.088C160.89 63.8389 167.579 50.1063 177.61 44.0909C180.61 44.041 182.845 44.1702 183.833 44.2445L160.631 65.5463ZM0.503014 78.5016V64.8628H3.10799V60.7244H5.57507L31.3323 73.4132L31.3853 73.4392H180.934V78.5022L0.503014 78.5016ZM5.97927 27.8005C8.66184 27.3188 11.3807 27.1092 14.0404 27.0882C14.9593 28.7208 20.8604 39.6999 21.3724 52.9585H20.5969C17.8513 44.5533 10.3568 33.9922 7.14386 29.4647C6.6481 28.7662 6.20202 28.1376 5.97927 27.8005ZM61.7305 3.40709C63.1474 5.84794 76.3621 29.7896 68.7928 59.9439L67.9119 59.4666C68.5517 35.352 52.8816 4.78966 50.7138 0.684633C55.1332 1.52504 58.9351 2.55227 61.7305 3.40709ZM142.82 31.247L141.011 35.0017C116.896 33.2294 107.214 40.4859 105.798 41.6795L102.471 37.7485C106.242 35.2472 114.751 30.5468 125.787 30.2697C125.907 30.2674 137.704 30.0995 142.82 31.247ZM127.996 70.1962L62.5467 70.1829V72.9398H31.5036L15.0894 64.8539V55.4586L20.4601 53.4579H24.1063H28.1684L40.4686 57.4393L46.3284 59.0858L52.4724 59.0952L62.0225 62.6209H146.766L157.739 66.0341L157.776 66.0452H160.478V70.0698H154.146V72.9398H135.964L135.977 72.9026L127.996 70.1962ZM134.53 72.9398H63.0492V70.6824H127.873L134.53 72.9398ZM152.641 49.002L154.868 58.7315H146.462L151.029 49.3069L152.641 49.002ZM71.7652 62.122H68.162L68.2167 60.2L71.7652 62.122ZM83.6936 50.0348L99.6628 56.0307L99.6316 58.0181L82.7484 53.9685L79.5449 52.7129L83.6936 50.0348ZM89.9598 45.9902L99.765 49.5004L99.6712 55.5002L84.2167 49.6971L89.9598 45.9902ZM132.81 59.5808L137.952 55.5689L140.137 59.5808H132.81ZM131.356 60.0803H140.409L141.521 62.1225H128.498L134.612 49.4361L137.71 55.1238L131.356 60.0803ZM114.142 51.4661L119.008 55.6615L100.133 58.0502L100.165 56.0479L114.142 51.4661ZM117.558 56.3478L118.344 57.2769L117.448 56.3616L117.558 56.3478ZM127.944 62.1153H123.097L118.459 56.6355C118.573 56.5513 118.866 56.3533 119.379 56.1172L120.186 56.0152L120.002 55.8572C121.813 55.1759 125.325 54.4175 131.341 55.0661L127.944 62.1153ZM100.173 55.5196L100.268 49.4771L107.496 45.7346L113.701 51.0847L100.173 55.5196ZM100.277 48.9094L100.422 39.6361L107.088 45.3831L100.277 48.9094ZM99.9202 39.5607L99.7728 48.9721L90.4891 45.6481L99.9202 39.5607ZM81.8786 54.1636C79.1452 56.2286 76.634 58.0896 74.7905 59.4444L80.7754 53.7307L81.8786 54.1636ZM82.4329 54.3809L82.5798 54.4386L99.8633 58.5874L116.824 56.4404L122.391 62.122H71.9729L72.0125 62.0932C72.4496 61.7777 77.0443 58.4549 82.4329 54.3809ZM155.01 59.2305L157.394 65.4038L146.88 62.1331L146.843 62.122H145.359L146.249 59.2305H155.01ZM158.022 65.5463L154.658 48.2248C157.005 47.3001 159.399 46.5728 161.761 46.0068C159.176 51.0781 158.275 63.2911 158.129 65.5463H158.022ZM157.028 63.0594L155.424 58.9067L153.124 48.859C153.476 48.7054 153.828 48.5552 154.182 48.411L157.028 63.0594ZM131.571 54.5883C125.044 53.862 121.381 54.7346 119.564 55.4791L111.849 48.8274L111.48 48.3922C113.094 47.5862 124.354 42.3325 135.536 46.3616L131.571 54.5883ZM65.0317 57.0624C65.8105 59.8469 66.1985 61.4523 66.352 62.122H62.1129L52.6047 58.6118L46.7712 58.5968L48.8592 53.5527L65.0317 57.0624ZM49.0534 53.0843L59.5906 27.6287C58.8726 30.977 58.6298 36.3937 61.0639 43.9817C62.8342 49.4998 64.0541 53.5987 64.8787 56.5191L49.0534 53.0843ZM42.5042 57.4925L41.1419 57.11L41.8543 51.414C42.2568 53.6508 42.5103 55.7153 42.5555 57.4931H42.5042V57.4925ZM40.6523 56.972L40.6149 56.9615L39.4821 56.595C39.0623 55.6842 38.3148 54.0938 37.5918 52.714C35.1593 47.5817 36.5188 36.4685 36.9805 33.2615C38.7402 38.6388 40.4887 44.5965 41.5478 49.8158L40.6523 56.972ZM36.464 51.0686C34.7652 49.9006 29.9499 49.4327 26.7035 49.2476L36.4389 33.4677C35.9828 36.6603 34.9416 45.5145 36.464 51.0686ZM36.5322 51.8209C36.732 52.1679 36.9436 52.5593 37.1574 52.9679C37.2161 53.0893 37.2724 53.2135 37.335 53.3282L37.3422 53.3243C37.8961 54.4025 38.4449 55.5545 38.8306 56.3838L28.2862 52.9706L24.41 52.9645L26.4026 49.7349C30.3117 49.9555 35.7952 50.5403 36.5322 51.8209ZM60.0054 25.3137L46.2559 58.5303L45.3593 58.2099C51.0125 38.2746 53.6616 24.4162 54.0607 22.2631C57.3731 23.6728 59.4276 24.9401 60.0054 25.3137ZM44.8847 58.0397L44.2069 57.7974L44.2388 57.8041C47.3546 42.5559 40.7818 21.6571 39.6396 18.2096C45.4089 19.0932 50.1309 20.6321 53.5862 22.0646C53.2607 23.8363 50.6228 37.7995 44.8847 58.0397ZM21.8754 52.959C21.3847 40.1228 15.8855 29.4049 14.6143 27.0893C19.491 27.1009 24.1415 27.7335 27.9742 28.4946C27.9334 30.3085 27.4516 44.5871 22.7452 52.959H21.8754ZM154.65 70.5693H160.981V69.0437H180.935V72.9398H154.65L154.65 70.5693ZM158.633 65.5463C158.792 63.2069 159.766 50.4666 162.416 45.8538C167.666 44.6553 172.706 44.2251 176.636 44.1126C166.257 50.8087 159.613 65.3711 159.546 65.5208L159.602 65.5457H158.633V65.5463ZM145.905 58.731H145.876L144.842 62.0921H142.075L134.88 48.8778L136.724 45.0527L150.504 49.2387L145.905 58.731ZM135.755 45.9087C124.095 41.6833 112.356 47.3855 111.149 48.0003L106.121 42.0609C107.416 40.9599 116.869 33.7738 140.776 35.4878L135.755 45.9087ZM102.053 38.0296L109.419 46.7319L100.571 39.1034C100.839 38.8938 101.342 38.5152 102.053 38.0296ZM88.5624 46.2967L98.8148 36.5084C99.4049 37.7729 99.7455 38.6438 99.875 38.9942L88.5624 46.2967ZM98.5887 36.0317L86.3225 47.7419L78.4535 52.8215L80.2606 53.5294L71.8238 61.5843L71.0567 61.169C87.0081 40.4671 85.4382 21.5152 84.871 17.4645C92.4503 24.6668 96.652 31.9998 98.5887 36.0317ZM84.2753 16.9085C84.6019 18.7274 87.6959 38.7985 70.6101 60.9274L69.2495 60.1906C76.5832 31.1816 64.7715 7.84362 62.43 3.62384C65.1567 4.48033 66.7568 5.11729 66.783 5.12782C73.9542 8.50331 79.7024 12.6665 84.2753 16.9085ZM67.4044 59.6047L67.3999 59.7577L67.7221 59.9323L67.6595 62.122H66.8673C66.5938 60.9157 65.3086 55.5706 61.5429 43.8304C58.4316 34.1308 59.8167 27.963 60.8132 25.3037C64.5448 35.9579 67.7315 48.4842 67.4044 59.6047ZM39.0819 18.1242C39.9204 20.6116 46.904 42.0869 43.7592 57.6378L43.0563 57.3867C42.7018 45.387 33.1249 20.7402 31.8459 17.4994C34.4056 17.5748 36.8213 17.7982 39.0819 18.1242ZM36.631 32.2016L23.8244 52.9585H23.3152C27.8831 44.5865 28.4202 30.7503 28.4749 28.5949C31.8168 29.2801 34.4888 30.0451 36.0749 30.5424C36.2586 31.0868 36.4445 31.6406 36.631 32.2016ZM14.5864 55.5523V64.6061L5.88045 60.3176L5.72022 55.5523H14.5864ZM180.935 68.5442H160.981V66.0457H180.935V68.5442ZM183.295 63.6332H163.456L174.194 53.7745V57.6583L183.295 63.6332Z" fill="white"/>
</g>
</svg>
