<svg width="163" height="123" viewBox="0 0 163 123" fill="none" xmlns="http://www.w3.org/2000/svg">
<mask id="mask0_1696_4199" style="mask-type:alpha" maskUnits="userSpaceOnUse" x="0" y="0" width="163" height="123">
<path fill-rule="evenodd" clip-rule="evenodd" d="M162.685 72.5172C163.396 71.9862 162.332 69.161 161.713 69.6018C161.094 70.0443 161.094 65.1819 161.537 62.9779C161.977 60.7672 161.713 61.0293 160.562 62.1798C159.411 63.3285 158.174 59.9724 157.908 59.0874C157.64 58.2041 156.312 55.7312 154.81 56.0835C153.305 56.4392 154.278 53.9629 152.865 54.2318C151.445 54.4922 151.184 52.1947 151.445 50.0775C151.711 47.9552 150.473 49.635 149.853 48.7551C149.234 47.8684 148.528 48.5764 147.55 48.9304C146.576 49.2861 146.31 47.077 146.576 46.1886C146.844 45.307 146.401 44.245 145.074 43.2749C143.746 42.3049 143.658 41.5067 143.746 40.3562C143.837 39.2108 136.225 35.3219 134.544 34.9696C132.861 34.619 134.28 32.8491 133.569 32.2347C132.861 31.6152 132.597 29.3159 132.597 27.374C132.597 25.4321 130.12 24.8126 130.209 23.2214C130.297 21.6318 129.503 20.1307 129.677 18.3607C129.854 16.5958 127.108 16.1567 127.022 15.1849C126.934 14.2115 125.427 15.0947 123.925 15.2734C122.418 15.4504 122.51 13.3265 122.685 11.2961C122.861 9.2657 122.065 5.90784 120.825 4.93775C119.586 3.96766 119.499 0.606391 118.88 0.0787987C118.26 -0.453899 116.222 1.84708 116.309 2.99247C116.401 4.14126 116.134 5.46704 115.339 6.17333C114.542 6.88133 115.871 9.6197 114.806 10.5932C113.744 11.565 114.719 15.4504 114.453 17.6595C114.189 19.8669 114.276 22.253 113.212 23.7558C112.153 25.2568 111.974 27.6446 109.848 28.4394C107.726 29.2325 104.894 27.5544 104.983 26.4056C105.07 25.2568 102.68 24.5488 101.442 24.7275C100.204 24.9062 99.4951 23.1363 97.5483 21.6369C95.5997 20.1341 94.0995 21.9875 93.4773 20.2226C92.8584 18.4594 92.2396 18.1922 90.8212 17.2204C89.4096 16.2503 89.8495 16.2503 91.1758 15.2751C92.5038 14.3051 92.2396 13.0661 91.5287 11.9173C90.8212 10.7651 92.3265 11.034 94.0978 10.0588C95.8657 9.09041 94.0978 7.93992 95.4241 7.41062C96.7505 6.87963 95.9577 5.73084 94.5376 5.46534C93.1227 5.19984 93.5659 6.87963 93.034 7.05492C92.5021 7.23192 91.9702 4.84585 91.527 4.93775C91.0854 5.02455 89.4079 7.31872 88.5197 6.17333C87.6333 5.02455 82.6775 4.05105 80.7306 3.79066C78.7854 3.52176 78.1666 1.04889 77.0142 1.48968C75.8634 1.93558 77.1898 2.72867 78.5178 4.14126C79.8441 5.55554 74.0939 6.52393 72.4129 5.99974C70.7337 5.46704 72.6789 7.23533 71.2622 7.14512C69.8455 7.05663 69.5813 9.5278 68.4306 10.7668C67.2798 12.0058 68.076 12.8874 66.8349 13.6822C65.5955 14.4787 65.5103 15.3602 67.0122 17.0434C68.5175 18.7232 66.3047 18.81 64.975 17.4842C63.6504 16.1618 62.3206 16.1618 62.411 17.6612C62.4979 19.1623 60.817 18.4594 61.083 16.7779C61.3506 15.0981 59.2247 15.8912 58.8736 14.9211C58.5155 13.9494 56.659 12.3598 55.5066 12.4466C54.3576 12.5368 54.3576 13.7741 53.2069 13.7741C52.0544 13.7741 51.7902 14.3902 51.9658 15.6291C52.1448 16.8647 50.1979 15.5389 48.8682 15.7176C47.5419 15.8912 48.8682 17.394 48.1607 17.4825C47.4549 17.571 47.4549 18.8083 46.3008 18.8083C45.15 18.8083 45.3307 21.368 45.5063 22.6938C45.6819 24.0178 43.7351 22.0743 42.586 22.4317C41.4336 22.7857 42.8503 23.9328 43.2049 25.4372C43.5595 26.9366 42.586 26.8481 41.9655 27.4676C41.3467 28.0854 40.3681 25.7878 40.3681 24.462C40.3681 23.1363 38.8662 24.3735 37.2756 26.0516C35.68 27.7297 37.8058 30.2928 37.0966 30.7336C36.3909 31.1744 33.2029 34.1817 31.3464 36.389C29.4882 38.5964 25.5024 37.2757 24.2647 38.3343C23.0254 39.3963 21.699 38.5964 20.4597 39.5699C19.2203 40.5417 16.9222 42.4002 16.6563 41.248C16.3937 40.1009 13.2041 40.9876 11.8778 42.4002C10.5497 43.8128 8.42729 45.0483 6.92026 45.1385C5.41664 45.2253 5.41664 47.5212 4.7978 48.0539C4.17897 48.5832 4.35285 46.1937 4.35285 45.581C4.35285 44.9632 2.93788 46.6396 2.31905 48.4947C1.70021 50.3498 3.82437 51.0561 2.49805 52.9997C1.16832 54.9466 -0.0710596 56.8851 1.78886 59.3614C3.64707 61.8343 4.70745 63.4256 4.09032 64.6594C3.46978 65.8967 2.14345 62.1866 1.70021 62.6325C1.25867 63.0733 3.38283 64.6594 2.85264 65.4576C2.31905 66.2507 0.414804 62.4487 0.0209987 63.3354C-0.337006 64.1335 3.99996 70.1396 4.09202 72.3453C4.18067 74.5543 7.63115 76.6766 7.45556 79.8575C7.27826 83.0384 10.4662 88.1628 10.9964 88.9576C11.5249 89.7541 9.75531 91.8713 10.1082 94.259C10.4662 96.6417 9.31378 97.5267 7.81016 97.5267C6.30483 97.5267 7.19303 100.001 8.86883 100.178C10.5514 100.355 9.93261 101.504 11.7908 102.743C13.649 103.979 18.073 103.538 19.5783 103.538C21.0836 103.538 21.5286 101.237 23.5624 101.155C25.5979 101.065 25.4189 100.445 26.3923 99.2048C27.3657 97.9709 31.9687 98.3232 36.6602 98.5921C41.3501 98.8542 43.3839 97.4416 44.0897 95.4963C44.6949 93.8387 48.0737 93.7314 49.4001 92.4925C50.7281 91.2569 51.8788 91.1701 55.331 91.3437C58.7815 91.5207 61.9694 89.6673 64.1805 88.784C66.3934 87.8973 70.4644 88.253 72.5885 87.7237C74.7127 87.1893 75.0656 90.3719 77.454 90.1081C79.8424 89.8392 80.9062 90.8144 82.1456 90.7259C83.3849 90.6357 83.2076 91.6092 84.447 91.8713C85.6864 92.1385 85.5108 93.1987 84.7147 94.3492C83.9151 95.4946 86.5712 95.4078 88.2521 97.7054C89.933 100.003 88.3408 100.355 89.2272 102.124C90.1103 103.888 90.7291 103.448 92.5004 100.975C94.27 98.5019 96.2151 100.091 96.4811 97.9709C96.747 95.8503 98.6087 93.3774 99.848 94.4377C101.087 95.4946 98.9598 96.0239 98.1654 100.091C97.3693 104.157 95.9543 102.035 95.6884 103.18C95.4224 104.329 99.4048 104.949 99.4048 102.826C99.4048 100.706 100.112 99.7358 101.619 101.676C103.123 103.626 100.731 105.214 101.087 106.099C101.439 106.981 103.121 105.83 104.008 105.919C105.581 106.079 107.724 109.544 107.37 111.401C107.017 113.256 106.485 115.021 109.492 116.527C112.503 118.028 111.352 118.29 113.565 118.29C115.778 118.29 120.379 120.058 121.618 121.119C122.858 122.177 126.045 120.322 126.663 118.2C127.283 116.084 129.585 118.115 128.345 118.819C127.102 119.529 128.964 121.207 129.053 120.058C129.14 118.908 129.672 117.939 130.115 119.265C130.556 120.588 132.152 120.588 132.771 121.648C133.391 122.71 134.097 123.503 134.097 122.62C134.097 121.736 134.452 120.942 135.868 120.411C137.282 119.878 138.168 118.906 139.672 117.669C141.177 116.433 147.372 116.168 147.991 116.168C148.61 116.168 148.965 110.871 149.317 108.13C149.672 105.39 151.974 104.949 152.326 102.033C152.681 99.118 155.777 93.728 156.575 93.4659C157.373 93.1987 158.88 92.4057 158.963 90.7259C159.053 89.0461 161.087 87.1876 161.087 85.1589C161.087 83.1269 162.241 80.7408 162.062 80.1247C161.883 79.5069 161.174 77.5565 162.504 76.1456C163.839 74.7279 161.977 73.0481 162.685 72.5172Z" fill="#FF6B13"/>
</mask>
<g mask="url(#mask0_1696_4199)">
<path d="M-12.501 -4.4043H176.279V121.448H-12.501V-4.4043Z" fill="#132B83"/>
<path d="M81.8896 -4.39893H70.5456L34.694 19.5015L-1.15772 -4.39893H-12.501V3.16163L23.35 27.0628L-12.501 50.9639V58.5237H-1.15772L34.694 34.6233L70.5456 58.5237H81.8896V50.9639L46.0372 27.0628L81.8896 3.16163V-4.39893Z" fill="#E4E4E4"/>
<path d="M-12.501 -4.39893V-0.621756L34.694 30.8455V27.0628L-12.501 -4.39893Z" fill="#E00021"/>
<path d="M81.89 54.747L34.6943 23.2798V27.0632L81.89 58.5242V54.747Z" fill="#E00021"/>
<path d="M-12.501 58.5237H-6.83211L34.694 30.8454V27.0627L-12.501 58.5237Z" fill="#E00021"/>
<path d="M76.2204 -4.39893L34.6943 23.2849V27.0683L81.8837 -4.39893H76.2204Z" fill="#E00021"/>
<path d="M81.8896 21.5558H38.6287V-4.39941H30.7593V21.5558H-12.501V32.5688H30.7593V58.5232H38.6287V32.5688H81.8896V21.5558Z" fill="#DE0023"/>
<path d="M27.6101 -4.3999V18.4061H-12.501V21.5553H30.7593V-4.3999H27.6101Z" fill="#E4E4E4"/>
<path d="M-12.501 35.711H27.6101V58.5226H30.7593V32.5681H-12.501V35.711Z" fill="#E4E4E4"/>
<path d="M81.8898 32.5681H38.6289V58.5226H41.7774V35.711H81.8898V32.5681Z" fill="#E4E4E4"/>
<path d="M81.8898 18.4061H41.7774V-4.3999H38.6289V21.5553H81.8898V18.4061Z" fill="#E4E4E4"/>
<path d="M52.5673 94.9715C52.5784 94.9177 52.5563 94.8686 52.5134 94.8417L42.7468 89.054L49.0389 79.6065C49.0658 79.563 49.0658 79.5091 49.0334 79.4663C48.9954 79.4228 48.947 79.4069 48.8979 79.4276L38.2753 83.4487L34.8063 72.6478C34.7738 72.5504 34.6114 72.5504 34.579 72.6478L31.1003 83.4493L20.4887 79.4283C20.4341 79.4069 20.3802 79.4228 20.3533 79.4663C20.3208 79.5098 20.3208 79.5658 20.3477 79.6079L26.6398 89.054L16.8732 94.8431C16.8296 94.87 16.8082 94.9184 16.8193 94.9729C16.8303 95.0213 16.8732 95.06 16.9222 95.06L28.2275 96.0404L26.6667 107.282C26.6612 107.332 26.6881 107.381 26.7372 107.402C26.7863 107.424 26.8346 107.418 26.8726 107.381L34.693 99.1536L42.514 107.381C42.5354 107.402 42.5679 107.419 42.6004 107.419C42.6162 107.419 42.6328 107.413 42.6494 107.404C42.6978 107.383 42.7247 107.333 42.7199 107.285L41.1591 96.0431L52.4651 95.0621C52.5134 95.0586 52.557 95.0206 52.5673 94.9715Z" fill="#E4E4E4"/>
<path d="M134.525 97.2814L137.387 92.9777C137.415 92.9342 137.415 92.8789 137.381 92.8368C137.349 92.7932 137.289 92.7829 137.246 92.7981L132.418 94.629L130.836 89.7132C130.804 89.6158 130.643 89.6158 130.609 89.7132L129.026 94.629L124.198 92.7981C124.15 92.7829 124.09 92.7926 124.063 92.8368C124.031 92.8803 124.031 92.9363 124.058 92.9777L126.913 97.2814L122.469 99.9199C122.426 99.9413 122.403 99.9945 122.415 100.045C122.427 100.093 122.469 100.131 122.517 100.137L127.666 100.587L126.955 105.703C126.95 105.757 126.978 105.805 127.027 105.828C127.076 105.844 127.125 105.84 127.162 105.8L130.722 102.056L134.282 105.8C134.302 105.828 134.335 105.84 134.369 105.84C134.383 105.84 134.401 105.834 134.416 105.828C134.465 105.806 134.492 105.757 134.488 105.703L133.773 100.587L138.921 100.137C138.968 100.131 139.013 100.093 139.022 100.045C139.034 99.9966 139.011 99.9434 138.968 99.9199L134.525 97.2814Z" fill="#E4E4E4"/>
<path d="M105.123 50.7204L107.98 46.4168C108.007 46.3732 108.007 46.3194 107.974 46.2758C107.936 46.2323 107.887 46.2212 107.839 46.2378L103.01 48.0694L101.426 43.1536C101.394 43.0562 101.232 43.0562 101.2 43.1536L99.617 48.0694L94.7889 46.2378C94.735 46.2219 94.6881 46.2323 94.6535 46.2758C94.621 46.3194 94.621 46.3732 94.648 46.4168L97.5055 50.7204L93.0658 53.3597C93.0223 53.3811 93.0002 53.4357 93.0119 53.4847C93.0243 53.5331 93.0658 53.5711 93.1128 53.5766L98.2566 54.0209L97.547 59.1432C97.5415 59.1978 97.5684 59.2455 97.6182 59.2676C97.6617 59.2897 97.7177 59.2786 97.7536 59.2406L101.313 55.4959L104.874 59.2406C104.895 59.2676 104.927 59.2786 104.96 59.2786C104.976 59.2786 104.993 59.2731 105.009 59.2676C105.057 59.2462 105.084 59.1971 105.079 59.1432L104.371 54.0209L109.513 53.5766C109.561 53.5711 109.605 53.5331 109.616 53.4847C109.627 53.4357 109.605 53.3818 109.561 53.3597L105.123 50.7204Z" fill="#E4E4E4"/>
<path d="M127.665 22.1636L126.955 27.2853C126.949 27.3399 126.977 27.3882 127.027 27.4104C127.075 27.4262 127.125 27.4214 127.161 27.3827L130.722 23.638L134.283 27.3827C134.303 27.4104 134.336 27.4207 134.369 27.4207C134.384 27.4207 134.401 27.4152 134.417 27.4097C134.465 27.3882 134.492 27.3392 134.488 27.2846L133.773 22.1629L138.922 21.718C138.97 21.7125 139.014 21.6745 139.024 21.6261C139.035 21.5777 139.012 21.5232 138.97 21.5017L134.524 18.8625L137.387 14.5589C137.415 14.5153 137.415 14.4614 137.381 14.4179C137.349 14.3744 137.289 14.3633 137.247 14.3799L132.418 16.2115L130.836 11.2957C130.803 11.1983 130.642 11.1983 130.608 11.2957L129.026 16.2115L124.197 14.3799C124.149 14.3633 124.089 14.3744 124.063 14.4179C124.03 14.4614 124.03 14.5153 124.057 14.5589L126.913 18.8625L122.468 21.5017C122.425 21.5232 122.403 21.5771 122.414 21.6261C122.426 21.6752 122.468 21.7125 122.517 21.718L127.665 22.1636Z" fill="#E4E4E4"/>
<path d="M165.163 45.641C165.175 45.592 165.152 45.5381 165.109 45.5167L160.671 42.8774L163.526 38.5738C163.553 38.5303 163.553 38.4757 163.521 38.4384C163.483 38.3948 163.429 38.379 163.387 38.4004L158.558 40.2271L156.976 35.3113C156.942 35.2139 156.781 35.2139 156.748 35.3113L155.165 40.2271L150.337 38.4004C150.284 38.3783 150.23 38.3948 150.203 38.4384C150.17 38.4764 150.17 38.5303 150.197 38.5738L153.059 42.8774L148.61 45.5167C148.566 45.5381 148.545 45.592 148.556 45.641C148.568 45.6901 148.609 45.7274 148.658 45.7329L153.807 46.1827L153.098 51.2989C153.091 51.3534 153.118 51.4018 153.169 51.4239C153.212 51.4398 153.27 51.435 153.303 51.3963L156.864 47.6516L160.424 51.3963C160.446 51.4239 160.479 51.4343 160.511 51.4343C160.527 51.4343 160.543 51.4287 160.559 51.4232C160.606 51.4011 160.634 51.3527 160.631 51.2982L159.92 46.182L165.063 45.7322C165.109 45.7281 165.152 45.6901 165.163 45.641Z" fill="#E4E4E4"/>
<path d="M138.292 61.9716L137.039 58.8985C137.007 58.8066 136.853 58.8066 136.823 58.8985L135.571 61.9716L132.26 62.21C132.216 62.2155 132.172 62.2487 132.157 62.2915C132.145 62.3351 132.157 62.3889 132.195 62.4159L134.731 64.5618L133.94 67.7815C133.929 67.825 133.945 67.8733 133.983 67.901C134.027 67.9335 134.082 67.9279 134.113 67.9065L136.932 66.162L139.755 67.9065C139.77 67.9183 139.793 67.9279 139.815 67.9279C139.842 67.9279 139.862 67.9169 139.886 67.901C139.924 67.8733 139.94 67.825 139.929 67.7815L139.138 64.5618L141.668 62.4159C141.706 62.3889 141.715 62.3351 141.706 62.2915C141.69 62.248 141.646 62.2155 141.604 62.21L138.292 61.9716Z" fill="#E4E4E4"/>
</g>
</svg>
