<svg width="109" height="123" viewBox="0 0 109 123" fill="none" xmlns="http://www.w3.org/2000/svg">
<mask id="mask0_1696_4224" style="mask-type:alpha" maskUnits="userSpaceOnUse" x="0" y="0" width="109" height="123">
<path fill-rule="evenodd" clip-rule="evenodd" d="M13.8205 32.39C10.9056 36.7395 6.92647 37.1072 7.63947 38.1893C8.37868 39.282 12.7353 42.9223 11.6396 44.7398C10.5491 46.5626 9.09691 45.4753 9.09691 48.7426C9.09691 52.0152 4.01158 52.0152 2.20813 52.0152C0.383698 52.0152 2.56462 55.2931 1.4794 57.8303C0.383698 60.3675 0.383698 65.4629 0.0219582 67.6429C-0.329297 69.8282 3.65509 73.4632 3.29335 75.2755C2.94209 77.1036 0.0219582 78.5534 0.766409 79.998C1.43746 81.39 4.05352 83.465 4.6407 90.1836C5.89368 90.5513 6.92123 91.024 7.3721 91.6334C9.01303 93.8134 11.7339 95.4471 15.2622 95.4471C18.801 95.4471 20.1745 97.9107 21.7998 97.6323C23.4354 97.3592 27.7921 98.7355 24.2585 101.724C20.7198 104.724 20.1745 108.27 19.3567 111.81C18.822 114.111 18.8534 117.3 18.2872 119.269C21.7421 119.574 26.8484 119.826 28.699 118.907C31.6034 117.457 33.4121 117.457 37.04 118.55C39.2052 119.196 42.1044 120.614 44.128 121.649C44.3482 120.914 44.7362 120.357 45.4701 120.268C47.9289 120 50.9277 124.901 52.5529 122.169C54.1938 119.443 57.9947 120 59.8978 121.082C61.8061 122.169 64.7996 122.726 66.9806 120.535C69.1562 118.355 77.5916 117.268 79.4999 118.082C81.4082 118.902 86.2996 121.076 84.3965 114.531C82.4934 107.991 88.4753 109.357 89.2983 106.899C90.1109 104.445 97.1885 103.363 96.1032 101.451C95.018 99.5444 86.0374 93.8134 83.3165 91.9118C80.5904 89.9997 80.5904 83.985 79.2325 81.5476C77.8747 79.084 74.8759 75.8166 78.4147 74.9971C81.9535 74.1777 88.2131 72.8171 91.2119 70.0856C94.1949 67.354 99.6368 67.0914 101.278 65.4524C102.913 63.8082 106.72 66.8182 107.805 65.1688C108.895 63.5351 109.703 60.2625 108.088 58.3556C106.447 56.4488 105.356 53.1762 105.094 48.5483C104.816 43.9099 103.453 44.1778 103.453 41.9978C103.453 39.8125 102.641 37.0915 100.727 35.9883C98.8294 34.9062 98.0116 34.092 99.9146 31.0873C101.823 28.0826 101 20.4499 100.182 18.2752C100.025 17.8392 100.04 17.3244 100.13 16.7833C99.6368 16.5522 99.2488 16.0689 99.102 15.2705C98.5568 12.3603 96.5698 11.2729 91.8463 11.2729C87.1227 11.2729 94.7454 6.54524 92.9262 4.17614C91.1175 1.82279 86.3992 8.53613 82.0531 7.08105C77.6912 5.64173 72.0764 12.187 68.265 15.0866C64.4484 18.002 59.0065 14.5456 61.911 10.3589C64.8101 6.18279 61.911 6.53999 57.5491 8.18943C53.1977 9.82312 47.9394 7.82172 48.4794 3.81893C48.6209 2.81036 48.2959 1.87532 47.7664 0.987565C45.6379 1.28699 44.0022 1.35002 43.2211 1.09262C41.2761 0.451758 36.846 0.0998071 32.0176 0C33.4593 2.11171 35.0216 4.18139 34.1461 5.82033C32.5209 8.9196 35.0583 11.8298 37.4122 16.3684C39.7767 20.9175 32.3426 18.3698 32.1591 21.2799C31.9704 24.1901 25.2704 21.0961 23.0842 19.9982C20.9138 18.9161 13.6527 19.641 13.8362 21.4585C13.9044 22.1887 13.7891 23.1815 13.4693 24.0377C14.4286 27.5625 14.8638 30.8036 13.8205 32.39Z" fill="#FF6B13"/>
</mask>
<g mask="url(#mask0_1696_4224)">
<path d="M139.249 0H-45.249V123H139.249V0Z" fill="#D80027"/>
<path d="M139.249 0H-45.249V40.9986H139.249V0Z" fill="black"/>
<path d="M139.249 81.9973H-45.249V122.996H139.249V81.9973Z" fill="#FFDA44"/>
</g>
</svg>
