<svg width="117" height="123" viewBox="0 0 117 123" fill="none" xmlns="http://www.w3.org/2000/svg">
<mask id="mask0_1696_4190" style="mask-type:alpha" maskUnits="userSpaceOnUse" x="0" y="0" width="117" height="123">
<path fill-rule="evenodd" clip-rule="evenodd" d="M83.7588 55.6528C83.005 53.8924 82.4958 50.6175 82.7477 49.3613C83.0014 48.1069 84.5126 49.1083 85.0181 47.6045C85.5237 46.0899 80.7292 46.0899 82.2422 44.0765C83.7588 42.0667 83.7588 44.0765 85.7737 44.0765C87.7959 44.0765 88.5479 45.085 88.5479 46.343C88.5479 47.6045 90.5718 48.3564 90.5718 48.3564C90.5718 48.3564 93.8479 48.1069 95.3663 48.1069C96.8811 48.1069 98.3905 48.1069 98.3905 49.1101C98.3905 50.1186 96.6275 53.3918 95.1127 53.3918C93.5979 53.3918 93.5978 57.668 94.8626 57.9157C96.1219 58.1705 97.1294 54.6479 97.885 54.6479C98.4301 54.6479 98.8457 58.6425 99.5887 62.759C99.7848 62.5275 99.9899 62.3607 100.204 62.3607C101.202 62.3607 100.702 58.8775 101.37 57.8798C102.034 56.8838 101.703 53.7363 102.203 53.7363C102.699 53.7363 105.693 54.7304 105.527 53.9032C105.36 53.0723 107.357 50.2514 107.024 48.7602C106.688 47.2707 108.188 45.4421 108.188 43.6207C108.188 41.7957 109.851 41.2968 111.015 40.3009C112.175 39.3049 114.172 37.9806 114.505 38.8096C114.839 39.6369 117.329 40.3009 116.334 38.8096C115.334 37.3148 115.334 36.3243 116 35.9923C116.667 35.6567 117 34.0004 117 34.0004C117 34.0004 114.839 33.6666 114.505 32.6743C114.17 31.6819 112.839 30.6877 112.839 29.8569C112.839 29.026 111.677 29.358 110.68 30.1889C109.68 31.0197 107.854 29.1947 105.691 30.3576C103.53 31.5168 103.03 32.8393 102.034 32.676C101.035 32.5074 101.201 33.5069 100.37 34.3342C99.5401 35.165 98.8727 36.161 98.3762 36.161C97.8796 36.161 96.2137 36.9918 96.2137 36.9918C96.2137 36.9918 97.3795 39.4772 96.7138 40.6364C96.0482 41.7993 94.3822 40.6364 92.558 41.1371C90.7265 41.6342 89.8954 40.4714 88.5623 40.8015C87.2346 41.1371 86.4034 39.9707 85.7396 40.1394C85.0739 40.3045 84.0754 38.6446 84.4083 37.3184C84.7429 35.9959 83.7426 34.1691 83.0788 35.165C82.4113 36.161 81.4182 35.6603 81.4182 37.1551C81.4182 38.6446 82.2494 40.4714 81.2509 41.4655C80.2524 42.4597 74.9308 42.9603 73.9359 42.1295C72.9339 41.2986 68.6143 40.8015 68.447 39.9707C68.2815 39.1416 66.9502 37.6522 66.119 37.6522C65.2861 37.6522 62.7908 38.8114 62.1287 38.3144C61.4631 37.8173 59.7971 36.4894 58.6367 36.3279C57.4709 36.1592 55.6413 35.3283 55.4758 34.6661C55.3085 34.0022 52.6495 33.6684 52.1493 33.0062C51.651 32.3423 49.9887 32.1808 49.9887 31.3499C49.9887 30.5209 50.6543 29.1947 50.6543 28.197C50.6543 27.1956 52.6477 26.2105 52.6477 25.5429C52.6477 24.8807 50.8216 23.7143 50.8216 23.7143C50.8216 23.7143 49.6558 21.5591 48.3245 21.5591C46.9932 21.5591 45.9947 19.2406 44.8344 19.0755C43.6704 18.9086 44.0014 16.5866 43.3375 15.7557C42.6755 14.9249 43.172 12.9383 44.336 13.9307C45.4982 14.9249 47.6625 13.9307 46.8295 12.4377C45.9965 10.9447 44.5015 9.6239 44.5015 8.79305C44.5015 7.9604 45.5018 5.47143 44.336 4.80567C43.1738 4.14709 42.1735 3.14935 41.8407 1.99189C41.5079 0.829059 40.1748 0 40.1748 0L38.5143 0.166888C38.5143 0.166888 37.5158 2.82095 36.8501 3.15114C36.1863 3.48312 33.8565 3.9802 32.6925 4.80747C31.5303 5.63652 28.2074 3.64822 26.3778 3.64822C24.5446 3.64822 23.3788 5.47322 24.2117 5.9721C25.0465 6.46738 24.8792 9.94871 24.8792 9.94871C24.8792 9.94871 25.8777 14.2627 27.3727 13.9325C28.8695 13.6023 30.7009 15.4237 29.3678 15.7575C28.0383 16.0895 27.3727 17.5825 27.2072 18.9104C27.0399 20.2348 27.3727 21.8911 26.3778 22.0598C25.3793 22.2249 24.3808 22.5569 24.3808 24.3819C24.3808 26.2105 22.2202 25.7116 21.8874 26.3702C21.5527 27.0359 20.7234 30.3558 20.2214 30.851C19.7249 31.3481 16.895 31.515 16.7295 33.008C16.5621 34.4975 15.238 36.3261 14.4051 36.1574C13.5721 35.9923 12.0735 35.3265 11.5769 36.3261C11.0768 37.3202 8.91794 35.4952 8.4196 35.9923C7.91946 36.4876 5.25685 38.6463 5.25685 39.9689C5.25685 41.2968 8.08677 41.2968 7.91766 42.9585C7.75215 44.6166 8.91794 46.4399 9.7509 47.2707C10.5785 48.0998 11.908 50.0881 11.2423 51.0858C10.5785 52.0782 9.58359 52.2415 8.08677 51.9113C6.58636 51.5775 6.75187 52.5735 4.09286 52.0782C1.43205 51.5793 1.26654 53.5712 0.26806 54.7322C0.208691 54.8058 0.113341 54.9081 0 55.0391C1.25574 56.0297 1.78467 57.7955 3.87337 58.5994C6.3021 59.5307 8.48256 57.0436 8.48256 58.8452C8.48256 60.6487 2.75076 60.2772 2.63022 60.8335C2.50789 61.3952 8.54013 68.6612 11.5949 68.1031C14.6425 67.5414 16.886 64.2521 16.0134 63.7514C15.1427 63.2597 16.5118 61.2068 17.3249 61.5818C18.1309 61.9533 17.4473 65.1816 18.381 65.9263C19.3183 66.6693 19.0053 68.0385 18.381 69.7791C17.7603 71.518 19.0053 74.9275 19.187 76.8584C19.3759 78.7803 20.6838 81.5762 21.121 84.433C21.5563 87.2934 23.3608 92.5083 25.0465 95.6755C26.7268 98.8446 28.0293 105.057 29.1484 106.545C30.271 108.034 33.1387 112.565 33.1387 115.363C33.1387 118.157 36.1899 122.065 37.2477 122.814C38.3056 123.558 40.6084 121.943 41.1697 120.206C41.7328 118.466 44.9063 117.78 45.0916 116.291C45.2805 114.803 45.5846 113.624 46.709 113.434C47.8316 113.247 47.8316 112.07 47.8316 110.455C47.8316 108.842 47.9557 106.543 49.0783 105.115C50.1937 103.684 50.3826 99.8334 49.7008 98.2812C49.0136 96.7325 49.3878 94.5576 50.0102 93.0017C50.6309 91.4531 50.3826 89.6478 51.5682 89.524C52.7502 89.402 54.4917 88.3414 55.7367 86.669C56.9852 84.9893 60.783 82.6905 62.1503 81.5744C63.5194 80.4564 67.6932 76.792 68.9381 74.7427C70.1795 72.6898 73.7272 72.0115 75.3482 70.3318C76.9691 68.6576 76.3431 67.789 76.6543 65.9856C76.9709 64.1857 82.1972 63.4374 84.1888 63.4374C84.5972 63.4374 84.93 63.3979 85.2358 63.3369C85.2124 60.4459 84.3381 57.0113 83.7588 55.6528Z" fill="#FF6B13"/>
</mask>
<g mask="url(#mask0_1696_4190)">
<path d="M-55.3154 82.8857H142.256V127.337H-55.3154V82.8857Z" fill="#11892E"/>
<path d="M-55.3154 -4.38086H142.256V40.0744H-55.3154V-4.38086Z" fill="#F2963B"/>
<path d="M-55.3262 40.0859H142.258V82.8913H-55.3262V40.0859Z" fill="#E4E4E4"/>
<path d="M61.4222 59.1262C60.1171 49.2118 51.0191 42.2295 41.1048 43.5345C31.1789 44.8447 24.203 53.9369 25.5074 63.8512C26.8125 73.7655 35.9098 80.7421 45.8349 79.4428C55.7492 78.1319 62.7265 69.0412 61.4222 59.1262ZM59.2776 62.6604C58.7896 62.609 58.3363 62.9489 58.2791 63.4369C58.2112 63.925 58.5394 64.3725 59.0282 64.4463C58.9588 64.815 58.8684 65.1845 58.778 65.5467L50.4971 62.8353L46.5724 62.0689C46.5934 61.9554 46.618 61.8426 46.6288 61.7284L50.5976 62.006L59.3102 61.5353C59.3123 61.9113 59.2892 62.2851 59.2776 62.6604ZM27.6635 60.317C28.1508 60.3683 28.5933 60.022 28.6613 59.5405C28.73 59.0524 28.3894 58.6099 27.9014 58.5253C27.9693 58.1623 28.0604 57.7936 28.1508 57.4306L36.4318 60.142L40.368 60.9077C40.3456 61.0154 40.3225 61.129 40.3116 61.2483L36.3291 60.9706L27.6288 61.4413C27.6288 61.0661 27.6396 60.6915 27.6635 60.317ZM27.9014 64.4463C28.3894 64.3725 28.73 63.9242 28.6613 63.4369C28.5933 62.9489 28.1508 62.6083 27.6635 62.6604C27.6404 62.2851 27.6288 61.9062 27.6288 61.5375L36.3291 62.0082L40.3225 61.7305C40.334 61.7877 40.3225 61.8441 40.334 61.9062C40.334 61.9634 40.3564 62.0132 40.368 62.0711L36.4318 62.8375L28.1508 65.5489C28.0604 65.1845 27.9802 64.8208 27.9014 64.4463ZM50.5997 60.9706L46.618 61.2483C46.6064 61.1919 46.618 61.1348 46.6064 61.0726C46.6064 61.0162 46.584 60.959 46.5724 60.9077L50.4971 60.142L58.778 57.4306C58.8684 57.7936 58.9588 58.1623 59.0282 58.5311C58.5394 58.6106 58.2104 59.0531 58.2791 59.5405C58.3363 60.0227 58.778 60.3683 59.2661 60.317C59.2878 60.6915 59.3116 61.0711 59.3116 61.4406L50.5997 60.9706ZM58.4274 56.2687C58.5409 56.6201 58.6652 56.9773 58.7686 57.3402L50.2266 59.1384L46.4603 60.437C46.4148 60.3293 46.3584 60.2273 46.3143 60.1196L49.9107 58.367L57.2061 53.6079C57.3985 53.9311 57.5691 54.2601 57.7376 54.6007C57.2965 54.8045 57.0796 55.3208 57.2705 55.7749C57.4505 56.2231 57.9733 56.4437 58.4274 56.2687ZM55.319 52.3997C55.6133 52.7858 56.17 52.8589 56.5554 52.5812C56.7817 52.8878 56.9748 53.2052 57.157 53.5284L49.3865 57.4704L46.0742 59.7053C46.0048 59.6142 45.9492 59.5123 45.8703 59.4269L48.876 56.8066L54.695 50.3181C54.9553 50.5849 55.2185 50.8568 55.4665 51.1467C55.0811 51.4576 55.024 52.0086 55.319 52.3997ZM52.5621 49.637C52.9474 49.9378 53.5042 49.864 53.8107 49.4895C54.0956 49.7332 54.3682 49.9884 54.6394 50.2552L48.1508 56.0749L45.5175 59.0922C45.4271 59.0184 45.349 58.9447 45.2449 58.8825L47.4907 55.5645L51.4269 47.794C51.7436 47.9812 52.061 48.1859 52.3777 48.3955C52.0979 48.7925 52.1651 49.3427 52.5621 49.637ZM49.1819 47.6862C49.6352 47.8735 50.1457 47.6638 50.3496 47.2213C50.6901 47.3854 51.0292 47.5611 51.3481 47.7484L46.584 55.0482L44.8371 58.633C44.7337 58.5817 44.6209 58.5477 44.5081 58.5087L45.8226 54.7257L47.6049 46.2011C47.9679 46.2973 48.3308 46.4108 48.6938 46.5359C48.513 46.9892 48.7285 47.499 49.1819 47.6862ZM44.6325 45.6899C44.5869 46.1722 44.9275 46.614 45.4155 46.6769C45.9036 46.7398 46.3454 46.4101 46.4249 45.9227C46.8009 45.9965 47.1631 46.0818 47.5246 46.178L44.814 54.4589L44.0533 58.3894C43.9275 58.367 43.827 58.3388 43.7019 58.3272L43.9861 54.3454L43.5111 45.6444C43.8842 45.6444 44.2695 45.6624 44.6325 45.6899ZM41.5133 46.6769C42.0014 46.6147 42.3528 46.1722 42.3079 45.6899C42.6709 45.6617 43.0563 45.6502 43.42 45.6444L42.9543 54.3454L43.2262 58.338C43.1698 58.3438 43.1134 58.338 43.0563 58.3438C42.9999 58.3496 42.9319 58.3778 42.8748 58.3894L42.1149 54.4589L39.4035 46.1722C39.7664 46.0818 40.1294 45.9965 40.5039 45.9227C40.5835 46.4101 41.026 46.7391 41.5133 46.6769ZM37.7477 47.6862C38.2126 47.499 38.4173 46.9827 38.2466 46.5236C38.598 46.4043 38.961 46.2973 39.3239 46.2004L41.1164 54.725L42.4099 58.4971C42.3072 58.5427 42.2053 58.5933 42.1033 58.6446L40.3449 55.0489L35.5916 47.7434C35.909 47.5619 36.2387 47.3854 36.5786 47.2213C36.7832 47.6638 37.2937 47.8735 37.7477 47.6862ZM34.3784 49.637C34.7645 49.342 34.844 48.7867 34.5483 48.389C34.8657 48.1786 35.1723 47.9805 35.5128 47.7932L39.4375 55.5637L41.6832 58.8818C41.5928 58.9439 41.4902 59.0126 41.3998 59.0857L38.7795 56.0742L32.2902 50.2545C32.5744 49.9877 32.8347 49.7324 33.1297 49.4888C33.4254 49.864 33.9814 49.9378 34.3784 49.637ZM31.6214 52.3997C31.9164 52.0086 31.8484 51.4583 31.4739 51.1467C31.7009 50.8633 31.9728 50.5907 32.2346 50.3181L38.0536 56.8066L41.0715 59.4327C41.0036 59.518 40.924 59.6142 40.8561 59.7053L37.5438 57.4704L29.7733 53.5284C29.9548 53.2052 30.1587 52.882 30.3742 52.5754C30.7596 52.8589 31.3271 52.7851 31.6214 52.3997ZM29.6591 55.7741C29.8521 55.3208 29.6475 54.8045 29.1934 54.5999C29.3634 54.2652 29.534 53.9304 29.7263 53.6072L37.0203 58.3662L40.6167 60.1189C40.5712 60.2208 40.5264 60.3343 40.4924 60.4421L36.7037 59.1377L28.1732 57.3453C28.2752 56.9765 28.3887 56.6252 28.5015 56.268C28.9563 56.4437 29.4776 56.2232 29.6591 55.7741ZM28.5022 66.7094C28.3894 66.358 28.2759 65.995 28.174 65.6321L36.7044 63.8346L40.4815 62.5411C40.5162 62.6481 40.5726 62.7515 40.6175 62.8534L37.0211 64.6126L29.7271 69.3702C29.534 69.0477 29.3641 68.7187 29.1942 68.3774C29.6482 68.1793 29.8521 67.6573 29.6598 67.2039C29.4776 66.7491 28.9563 66.5279 28.5022 66.7094ZM31.6214 70.5784C31.3271 70.1923 30.7596 70.1185 30.3735 70.4027C30.158 70.0896 29.9541 69.7729 29.7726 69.4497L37.5431 65.5077L40.8553 63.267C40.9233 63.3639 40.9913 63.46 41.0708 63.5511L38.0528 66.1714L32.2338 72.6542C31.9728 72.3881 31.7118 72.1163 31.4732 71.8314C31.8492 71.519 31.9171 70.9695 31.6214 70.5784ZM34.3784 73.3396C33.9814 73.0389 33.4261 73.1133 33.1304 73.4871C32.8462 73.2435 32.5744 72.989 32.291 72.7214L38.7802 66.9024L41.4121 63.8787C41.5025 63.9575 41.5936 64.0312 41.684 64.0884L39.4382 67.4064L35.5135 75.1819C35.1845 74.9947 34.8664 74.7908 34.549 74.5804C34.8433 74.1899 34.7645 73.6346 34.3784 73.3396ZM37.7477 75.2846C37.2937 75.1031 36.7832 75.307 36.5793 75.7546C36.2387 75.5897 35.9098 75.4083 35.5923 75.2275L40.3456 67.9277L42.104 64.3371C42.206 64.3884 42.3195 64.4275 42.4214 64.4622L41.1164 68.2502L39.3239 76.7748C38.961 76.6786 38.6096 76.5709 38.2466 76.4458C38.4173 75.9881 38.2011 75.4777 37.7477 75.2846ZM42.3079 77.2874C42.3535 76.8052 42.0014 76.3641 41.5133 76.3005C41.026 76.2325 40.5835 76.5731 40.5039 77.0496C40.1287 76.9816 39.7657 76.8963 39.4035 76.8001L42.1149 68.5191L42.8748 64.5887C42.9999 64.6104 43.1134 64.6386 43.2262 64.6509L42.9543 68.6269L43.42 77.3337C43.0447 77.333 42.6709 77.3214 42.3079 77.2874ZM45.4155 76.3005C44.9275 76.3634 44.5869 76.7994 44.6325 77.2874C44.258 77.3098 43.8842 77.3279 43.5096 77.3279L43.9854 68.6269L43.7005 64.6343C43.7569 64.6285 43.827 64.64 43.8704 64.6285C43.9254 64.6227 43.9955 64.6003 44.0519 64.5887L44.8125 68.5191L47.5232 76.8001C47.1602 76.8963 46.7973 76.9816 46.4235 77.0496C46.3461 76.5731 45.9036 76.2325 45.4155 76.3005ZM49.1819 75.2846C48.7278 75.4777 48.5123 75.9881 48.6938 76.4465C48.3308 76.5709 47.9679 76.6786 47.6049 76.7755L45.8226 68.2509L44.519 64.4795C44.6209 64.434 44.7214 64.3834 44.8357 64.327L46.5825 67.9277L51.3466 75.2275C51.0299 75.4148 50.6887 75.5905 50.3481 75.7546C50.1457 75.3085 49.6352 75.1031 49.1819 75.2846ZM52.5621 73.3396C52.1651 73.6346 52.0971 74.1899 52.3806 74.5883C52.0639 74.7922 51.7573 74.9961 51.4283 75.1834L47.4936 67.4078L45.2493 64.0898C45.3519 64.0327 45.4517 63.9654 45.5334 63.8924L48.1537 66.9039L54.6422 72.7229C54.3704 72.9897 54.0978 73.2449 53.8136 73.4886C53.5035 73.1126 52.9474 73.0389 52.5621 73.3396ZM55.319 70.5784C55.024 70.9695 55.0927 71.5198 55.4665 71.8263C55.2286 72.1155 54.9553 72.3881 54.695 72.6549L48.876 66.1722L45.858 63.5461C45.9267 63.4557 46.0048 63.3646 46.0742 63.2677L49.3865 65.5084L57.157 69.4446C56.9748 69.7736 56.7709 70.091 56.5554 70.4034C56.1585 70.1178 55.6133 70.1915 55.319 70.5784ZM57.2698 67.2039C57.0753 67.6573 57.2922 68.1735 57.7354 68.3781C57.5655 68.7122 57.3941 69.0412 57.2025 69.3702L49.9085 64.6126L46.3237 62.8592C46.3692 62.7572 46.4032 62.6437 46.4488 62.5367L50.2266 63.8353L58.7585 65.6328C58.6674 65.9957 58.5416 66.3594 58.4295 66.7043C57.9733 66.5337 57.4505 66.7549 57.2698 67.2039Z" fill="#21296F"/>
</g>
</svg>
