<?xml version="1.0" standalone="no"?>
<svg xmlns="http://www.w3.org/2000/svg" version="1.1" xmlns:xlink="http://www.w3.org/1999/xlink" width="512" height="512" x="0" y="0" viewBox="0 0 512 512" style="enable-background:new 0 0 512 512" xml:space="preserve" class=""><g><path d="M499.31 132.37 258.949 37.075a8.006 8.006 0 0 0-5.896 0L12.69 132.37a8 8 0 0 0-5.052 7.437v327.68a8 8 0 0 0 8 8h48.556a8 8 0 0 0 8-8V183.03h367.612v284.458a8 8 0 0 0 8 8h48.556a8 8 0 0 0 8-8V139.806a7.997 7.997 0 0 0-5.052-7.436zM256 53.118l205.755 81.574H50.246zm232.362 97.574v16.337H23.638v-16.337zM56.194 459.487H23.638V183.03h32.556zm399.612 0V183.03h32.556v276.458h-32.556zM321.289 348.029a15.482 15.482 0 0 0-11.023-4.558c-2.941 0-5.747.82-8.182 2.326l-11.811-11.811 35.304-35.304a50.145 50.145 0 0 0 49.391-12.776c13.46-13.46 18.144-33.07 12.222-51.176a8 8 0 0 0-13.261-3.17l-26.763 26.764-12.355-3.311-3.311-12.354 26.765-26.764a7.999 7.999 0 0 0 2.123-7.517 7.998 7.998 0 0 0-5.293-5.744c-18.104-5.921-37.716-1.238-51.176 12.223-13.05 13.049-17.799 31.942-12.776 49.39l-35.304 35.304-39.665-39.664-6.479-17.508a8.001 8.001 0 0 0-3.26-4.005l-32.228-20.165a8 8 0 0 0-9.899 1.125l-17.576 17.576a7.998 7.998 0 0 0-1.126 9.9l20.165 32.228a7.991 7.991 0 0 0 4.006 3.259l17.507 6.479 39.665 39.665-38.898 38.898a50.14 50.14 0 0 0-49.391 12.776c-13.459 13.46-18.143 33.069-12.222 51.175a7.998 7.998 0 0 0 13.261 3.17l26.764-26.764 12.354 3.31 3.31 12.354-26.764 26.764a7.996 7.996 0 0 0-2.123 7.517 7.996 7.996 0 0 0 5.294 5.743 50.587 50.587 0 0 0 15.737 2.521c13.09 0 25.83-5.136 35.438-14.743 13.052-13.05 17.8-31.943 12.776-49.391l38.898-38.898 11.812 11.812c-3.708 6.008-2.974 14 2.23 19.204l72.396 72.396a8.002 8.002 0 0 0 11.314 0l34.549-34.549a8 8 0 0 0 0-11.313zm-15.297-76.004a7.998 7.998 0 0 0 1.749-8.68 34.182 34.182 0 0 1 7.491-37.174c5.503-5.504 12.517-8.854 19.912-9.783l-18.225 18.224a8 8 0 0 0-2.07 7.728l5.702 21.277a8 8 0 0 0 5.657 5.657l21.277 5.701a8.006 8.006 0 0 0 7.728-2.071l18.223-18.224c-.929 7.396-4.279 14.409-9.783 19.913a34.181 34.181 0 0 1-37.174 7.491 8.001 8.001 0 0 0-8.681 1.75l-38.84 38.839-11.807-11.807zm-111.513 2.353-16.591-6.14-15.341-24.518 8.571-8.571 24.518 15.34 6.14 16.592a7.992 7.992 0 0 0 1.846 2.88l86.842 86.843-6.261 6.261-86.843-86.843a8.04 8.04 0 0 0-2.881-1.844zm13.156 119.617a8 8 0 0 0-1.749 8.681 34.18 34.18 0 0 1-7.49 37.174c-5.504 5.503-12.518 8.854-19.913 9.783l18.224-18.224a7.998 7.998 0 0 0 2.07-7.727l-5.7-21.278a7.999 7.999 0 0 0-5.657-5.657l-21.277-5.701a8.008 8.008 0 0 0-7.728 2.071l-18.224 18.223c.93-7.396 4.279-14.409 9.783-19.912a34.189 34.189 0 0 1 37.174-7.491 7.996 7.996 0 0 0 8.681-1.75l42.434-42.433 11.807 11.806zm145.843 55.321-66.448-66.449 23.234-23.235 66.449 66.448z" fill="#ff6b13" opacity="1" data-original="#000000" class=""/></g></svg>