<?xml version="1.0" standalone="no"?>
<svg xmlns="http://www.w3.org/2000/svg" version="1.1" xmlns:xlink="http://www.w3.org/1999/xlink" width="512" height="512" x="0" y="0" viewBox="0 0 512 512" style="enable-background:new 0 0 512 512" xml:space="preserve" class=""><g><path d="M191.631 111.257h-48.363c-6.88 0-12.478 5.598-12.478 12.478v22.983c0 6.88 5.598 12.478 12.478 12.478h48.363c6.88 0 12.478-5.598 12.478-12.478v-22.983c0-6.88-5.598-12.478-12.478-12.478zm-2.54 32.919h-43.282v-17.901h43.282v17.901zM280.182 111.257h-48.363c-6.88 0-12.478 5.598-12.478 12.478v22.983c0 6.88 5.598 12.478 12.478 12.478h48.363c6.88 0 12.478-5.598 12.478-12.478v-22.983c0-6.88-5.598-12.478-12.478-12.478zm-2.541 32.919H234.36v-17.901h43.281v17.901zM368.731 111.257h-48.363c-6.88 0-12.478 5.598-12.478 12.478v22.983c0 6.88 5.598 12.478 12.478 12.478h48.363c6.88 0 12.478-5.598 12.478-12.478v-22.983c0-6.88-5.598-12.478-12.478-12.478zm-2.54 32.919h-43.282v-17.901h43.282v17.901zM500.729 483.028c-14.761.529-23.095 4.291-30.447 7.609-7.541 3.404-14.054 6.344-27.966 6.344s-20.424-2.94-27.966-6.344c-7.969-3.597-17-7.674-34.145-7.674-17.144 0-26.175 4.076-34.144 7.674-7.541 3.404-14.054 6.344-27.965 6.344-13.91 0-20.422-2.94-27.963-6.344-7.969-3.597-17-7.674-34.143-7.674-17.142 0-26.173 4.076-34.141 7.674-7.54 3.404-14.052 6.344-27.962 6.344s-20.422-2.94-27.963-6.344c-7.969-3.597-17-7.674-34.143-7.674s-26.175 4.076-34.143 7.674c-7.541 3.404-14.053 6.344-27.963 6.344s-20.422-2.94-27.962-6.344c-7.352-3.319-15.684-7.08-30.444-7.609-4.143-.12-7.625 3.092-7.773 7.236a7.508 7.508 0 0 0 7.236 7.773c11.809.423 17.83 3.142 24.802 6.289 7.969 3.597 17 7.674 34.143 7.674s26.174-4.076 34.143-7.674c7.541-3.404 14.053-6.344 27.964-6.344s20.422 2.94 27.963 6.344c7.969 3.597 16.999 7.674 34.142 7.674s26.174-4.077 34.142-7.674c7.54-3.404 14.052-6.344 27.962-6.344s20.422 2.94 27.963 6.344c7.969 3.597 17 7.674 34.143 7.674s26.175-4.076 34.143-7.674c7.541-3.404 14.054-6.344 27.965-6.344 13.912 0 20.424 2.94 27.966 6.344 7.969 3.597 17.001 7.674 34.145 7.674s26.176-4.076 34.145-7.674c6.973-3.148 12.995-5.866 24.806-6.289a7.51 7.51 0 0 0 7.236-7.773c-.151-4.145-3.651-7.398-7.776-7.236z" fill="#ff6b13" opacity="1" data-original="#000000" class=""/><path d="M500.405 450.579c-14.555.571-22.823 4.303-30.119 7.596-7.541 3.404-14.054 6.344-27.965 6.344-11.518 0-17.964-2.018-24.122-4.643l73.751-174.605a19.855 19.855 0 0 0 .071-15.388 19.857 19.857 0 0 0-10.881-10.881l-55.972-23.03-6.351-54.444c-.481-4.119-4.206-7.084-8.329-6.588a7.51 7.51 0 0 0-6.589 8.329l5.386 46.169-150.422-61.892a7.512 7.512 0 0 0-5.715 0L102.72 229.438l13.994-119.969a13.361 13.361 0 0 1 13.272-11.814h252.03a13.362 13.362 0 0 1 13.272 11.814l4.616 39.575c.481 4.119 4.206 7.077 8.329 6.588a7.51 7.51 0 0 0 6.589-8.329l-4.616-39.575c-1.669-14.305-13.788-25.092-28.19-25.092h-27.258V56.969c0-10.675-8.684-19.358-19.358-19.358h-46.897V15.506c0-8.55-6.956-15.506-15.506-15.506h-33.989c-8.55 0-15.506 6.956-15.506 15.506v22.105h-46.897c-10.674 0-19.358 8.684-19.358 19.358v25.667h-27.258c-14.402 0-26.521 10.787-28.19 25.092L86.837 235.973l-55.972 23.03c-4.971 2.046-8.835 5.91-10.881 10.881s-2.021 10.436.071 15.388l73.749 174.601c-6.159 2.627-12.605 4.647-24.127 4.647-13.909 0-20.421-2.94-27.962-6.344-7.295-3.293-15.563-7.025-30.115-7.596-4.165-.185-7.637 3.064-7.798 7.209a7.507 7.507 0 0 0 7.208 7.798c11.629.457 17.605 3.154 24.525 6.278 7.968 3.597 16.999 7.674 34.141 7.674 17.143 0 26.174-4.076 34.143-7.674.934-.422 1.853-.836 2.772-1.239l.013-.005.457-.198c.272-.118.544-.236.817-.352l.37-.155c.351-.147.702-.292 1.057-.434l.222-.088a64.41 64.41 0 0 1 1.258-.486l.099-.037a50.06 50.06 0 0 1 6.079-1.843c.18-.042.369-.081.552-.122.343-.076.688-.151 1.042-.222.27-.054.548-.104.826-.155a48.975 48.975 0 0 1 2.654-.417 60.493 60.493 0 0 1 3.039-.326c.326-.027.663-.049.999-.073.36-.025.718-.051 1.09-.071.422-.023.862-.038 1.3-.055.309-.012.61-.027.927-.035.773-.02 1.567-.032 2.39-.032 13.91 0 20.422 2.94 27.963 6.344.609.275 1.227.552 1.851.831 7.548 3.366 16.458 6.843 32.292 6.843 13.928 0 22.502-2.692 29.501-5.63a186.21 186.21 0 0 0 4.641-2.044c7.54-3.404 14.052-6.344 27.962-6.344s20.422 2.94 27.963 6.344c7.969 3.597 17 7.674 34.143 7.674 15.781 0 24.685-3.454 32.217-6.809.65-.29 1.294-.579 1.927-.864 7.541-3.404 14.054-6.344 27.965-6.344.824 0 1.617.012 2.391.032.318.008.618.024.928.035.437.016.876.032 1.298.054.375.02.736.046 1.1.072.331.023.664.045.986.072a68.651 68.651 0 0 1 3.055.329 55.033 55.033 0 0 1 1.798.267c.28.046.554.096.826.145.288.052.576.104.856.16.339.068.669.14.997.212.199.044.403.086.598.132 1.651.387 3.181.835 4.638 1.33l.007.002a57.485 57.485 0 0 1 2.781 1.031l.224.089c.359.144.715.291 1.07.44l.35.146c.301.127.6.257.9.387.129.056.259.111.388.168l.009.003c.918.402 1.835.816 2.768 1.237 7.969 3.597 17.001 7.674 34.145 7.674s26.176-4.076 34.145-7.674c6.921-3.124 12.898-5.822 24.529-6.278a7.509 7.509 0 0 0 7.209-7.798c-.162-4.145-3.663-7.356-7.798-7.209zM238.517 15.506a.49.49 0 0 1 .488-.487h33.989c.269 0 .487.218.487.487v22.105h-34.964V15.506zm-66.255 41.463a4.344 4.344 0 0 1 4.339-4.339H335.398a4.344 4.344 0 0 1 4.339 4.339v25.667H172.262V56.969zm232.076 397.115c-3.52-1.184-7.597-2.22-12.553-2.869l-.249-.033a77.037 77.037 0 0 0-2.431-.273l-.221-.02a81.525 81.525 0 0 0-2.372-.186l-.362-.025a92.192 92.192 0 0 0-2.579-.119l-.567-.016c-.911-.025-1.837-.042-2.798-.042-17.144 0-26.175 4.076-34.144 7.674-7.541 3.404-14.054 6.344-27.965 6.344-13.91 0-20.422-2.94-27.963-6.344-7.969-3.597-17-7.674-34.143-7.674-17.142 0-26.173 4.076-34.141 7.674-7.54 3.404-14.052 6.344-27.962 6.344s-20.422-2.94-27.963-6.344c-7.47-3.372-15.875-7.166-31.022-7.627-1.01-.031-2.05-.047-3.121-.047-.962 0-1.889.017-2.8.042l-.561.016c-.884.029-1.747.068-2.585.119-.118.007-.233.016-.35.024-.821.053-1.622.116-2.4.189l-.193.017c-.844.081-1.661.174-2.458.276l-.209.027c-4.962.649-9.042 1.684-12.565 2.868L45.276 306.386l28.307-11.103a7.51 7.51 0 0 0-5.484-13.983L39.43 292.546l-5.541-13.117a4.938 4.938 0 0 1-.018-3.829 4.943 4.943 0 0 1 2.707-2.708L256 182.61l219.421 90.282a4.94 4.94 0 0 1 2.707 2.708 4.942 4.942 0 0 1-.017 3.829l-5.541 13.117-213.828-83.873a7.523 7.523 0 0 0-5.484 0l-152.631 59.869a7.51 7.51 0 0 0 5.484 13.982L256 223.731l210.724 82.655-62.386 147.698z" fill="#ff6b13" opacity="1" data-original="#000000" class=""/></g></svg>