<?xml version="1.0" standalone="no"?>
<svg xmlns="http://www.w3.org/2000/svg" version="1.1" xmlns:xlink="http://www.w3.org/1999/xlink" width="512" height="512" x="0" y="0" viewBox="0 0 100 100" style="enable-background:new 0 0 512 512" xml:space="preserve" class=""><g><path d="M81.64 55.63v-8.17a2.44 2.44 0 0 0 2.29-2.43v-4.98c0-1.35-1.1-2.45-2.45-2.45h-21.1c-1.35 0-2.45 1.1-2.45 2.45v4.98c0 1.18.85 2.18 1.97 2.4v8.2c-1.03 0-2.04 0-3.04.01V22.58c0-.83-.67-1.5-1.5-1.5H20.94c-.83 0-1.5.67-1.5 1.5v26.71h-5.11c-.41 0-.81.17-1.09.47s-.43.7-.41 1.11c.91 17.12 9.34 27.11 9.7 27.53.29.33.7.52 1.14.52h50.32c.53 0 1.02-.28 1.29-.74 0 0 2.96-5.03 5.9-10.07 1.47-2.52 2.94-5.05 4.03-6.96 2.32-4.06 2.38-4.17 1.54-5.01-.3-.33-.51-.46-5.11-.51zm-16.13-.01H62.9v-8.14h15.74v8.14c-3.03-.02-7.25-.01-13.13 0zm-4.57-15.03h20v3.88H60.93v-3.88zm-32.38.76h2.02v1.39h-2.02zm12.3 7.94H39.7v-7.94h3.02v2.89c0 .83.67 1.5 1.5 1.5h5.02c.83 0 1.5-.67 1.5-1.5v-2.89h3.12v14.27h-11.5v-4.83c0-.83-.67-1.5-1.5-1.5zm4.86-7.94h2.02v1.39h-2.02zm8.15-3H39.7V24.08h3.02v2.89c0 .83.67 1.5 1.5 1.5h5.02c.83 0 1.5-.67 1.5-1.5v-2.89h3.12v14.27zm-6.13-14.27v1.39h-2.02v-1.39zm-17.16 0v1.39h-2.02v-1.39zm-5.02 0v2.89c0 .83.67 1.5 1.5 1.5h5.02c.83 0 1.5-.67 1.5-1.5v-2.89h3.02v14.27H22.43V24.08zm-3.13 17.27h3.12v2.89c0 .83.67 1.5 1.5 1.5h5.02c.83 0 1.5-.67 1.5-1.5v-2.89h3.02v7.94H22.43zm50.7 34.57H24.39c-.39-.52-1.04-1.43-1.81-2.69 16.88-.01 43.78-.02 52.14-.01-.56.93-1.09 1.84-1.59 2.7zm3.34-5.69c-.43-.01-.96-.01-1.61-.01H48.65l-27.73.01c-2.08-4.14-4.35-10.22-5-17.94h23.43v4.89c0 .4.16.78.44 1.06s.69.42 1.06.44c7.5-.03 16.68-.05 24.76-.06h14.46c1.21 0 2.26.01 3.11.01-1.43 2.56-4.1 7.14-6.71 11.6z" fill="#1f4278" opacity="1" data-original="#000000" class=""/><path d="M30.45 55.11c-2.59 0-4.7 2.11-4.7 4.7s2.11 4.7 4.7 4.7 4.7-2.11 4.7-4.7-2.11-4.7-4.7-4.7zm0 6.41c-.94 0-1.7-.76-1.7-1.7s.76-1.7 1.7-1.7 1.7.76 1.7 1.7-.76 1.7-1.7 1.7z" fill="#1f4278" opacity="1" data-original="#000000" class=""/></g></svg>