<svg id="Layer_1" enable-background="new 0 0 512 512" viewBox="0 0 512 512" xmlns="http://www.w3.org/2000/svg"><path d="m499.31 132.37-240.361-95.295c-1.893-.75-4.004-.75-5.896 0l-240.363 95.295c-3.05 1.209-5.052 4.157-5.052 7.437v327.68c0 4.418 3.582 8 8 8h48.556c4.418 0 8-3.582 8-8v-284.457h367.612v284.458c0 4.418 3.582 8 8 8h48.556c4.418 0 8-3.582 8-8v-327.682c0-3.28-2.002-6.228-5.052-7.436zm-243.31-79.252 205.755 81.574h-411.509zm232.362 97.574v16.337h-464.724v-16.337zm-432.168 308.795h-32.556v-276.457h32.556zm399.612 0v-276.457h32.556v276.458h-32.556zm-134.517-111.458c-2.938-2.939-6.854-4.558-11.023-4.558-2.941 0-5.747.82-8.182 2.326l-11.811-11.811 35.304-35.304c17.445 5.019 36.34.274 49.391-12.776 13.46-13.46 18.144-33.07 12.222-51.176-.864-2.643-3.039-4.647-5.743-5.294-2.705-.646-5.551.158-7.518 2.124l-26.763 26.764-12.355-3.311-3.311-12.354 26.765-26.764c1.966-1.966 2.77-4.812 2.123-7.517-.646-2.705-2.65-4.879-5.293-5.744-18.104-5.921-37.716-1.238-51.176 12.223-13.05 13.049-17.799 31.942-12.776 49.39l-35.304 35.304-39.665-39.664-6.479-17.508c-.614-1.659-1.761-3.067-3.26-4.005l-32.228-20.165c-3.158-1.977-7.266-1.509-9.899 1.125l-17.576 17.576c-2.636 2.635-3.103 6.741-1.126 9.9l20.165 32.228c.938 1.5 2.347 2.646 4.006 3.259l17.507 6.479 39.665 39.665-38.898 38.898c-17.448-5.02-36.341-.274-49.391 12.776-13.459 13.46-18.143 33.069-12.222 51.175.864 2.643 3.039 4.648 5.743 5.294 2.71.646 5.552-.157 7.518-2.124l26.764-26.764 12.354 3.31 3.31 12.354-26.764 26.764c-1.966 1.966-2.771 4.812-2.123 7.517.646 2.704 2.65 4.879 5.294 5.743 5.183 1.695 10.488 2.521 15.737 2.521 13.09 0 25.83-5.136 35.438-14.743 13.052-13.05 17.8-31.943 12.776-49.391l38.898-38.898 11.812 11.812c-3.708 6.008-2.974 14 2.23 19.204l72.396 72.396c1.501 1.5 3.535 2.343 5.657 2.343s4.156-.843 5.657-2.343l34.549-34.549c3.124-3.124 3.124-8.189 0-11.313zm-15.297-76.004c2.277-2.277 2.967-5.698 1.749-8.68-5.228-12.805-2.287-27.397 7.491-37.174 5.503-5.504 12.517-8.854 19.912-9.783l-18.225 18.224c-2.021 2.021-2.81 4.967-2.07 7.728l5.702 21.277c.74 2.761 2.896 4.917 5.657 5.657l21.277 5.701c2.761.738 5.706-.05 7.728-2.071l18.223-18.224c-.929 7.396-4.279 14.409-9.783 19.913-9.777 9.778-24.366 12.719-37.174 7.491-2.981-1.217-6.402-.528-8.681 1.75l-38.84 38.839-11.807-11.807zm-111.513 2.353-16.591-6.14-15.341-24.518 8.571-8.571 24.518 15.34 6.14 16.592c.4 1.082 1.03 2.064 1.846 2.88l86.842 86.843-6.261 6.261-86.843-86.843c-.817-.814-1.799-1.443-2.881-1.844zm13.156 119.617c-2.277 2.277-2.967 5.699-1.749 8.681 5.229 12.805 2.288 27.396-7.49 37.174-5.504 5.503-12.518 8.854-19.913 9.783l18.224-18.224c2.021-2.021 2.81-4.966 2.07-7.727l-5.7-21.278c-.739-2.761-2.896-4.917-5.657-5.657l-21.277-5.701c-2.759-.738-5.705.05-7.728 2.071l-18.224 18.223c.93-7.396 4.279-14.409 9.783-19.912 9.779-9.777 24.369-12.717 37.174-7.491 2.98 1.219 6.403.529 8.681-1.75l42.434-42.433 11.807 11.806zm145.843 55.321-66.448-66.449 23.234-23.235 66.449 66.448z"/></svg>