<svg width="249" height="123" viewBox="0 0 249 123" fill="none" xmlns="http://www.w3.org/2000/svg">
<mask id="mask0_1696_4230" style="mask-type:alpha" maskUnits="userSpaceOnUse" x="0" y="0" width="249" height="123">
<path fill-rule="evenodd" clip-rule="evenodd" d="M245.387 12.4362C245.262 11.1644 241.455 12.1789 239.679 10.7821C237.902 9.37791 234.858 15.7444 234.223 18.4149C233.587 21.0854 228.894 24.0113 228.894 24.0113C228.894 24.0113 215.317 24.1382 214.175 24.1382C213.383 24.1382 210.263 26.8362 208.432 28.483C208.488 28.5547 208.543 28.6282 208.593 28.7146C209.966 31.1994 204.976 32.723 200.219 32.9142C198.756 32.9712 197.655 33.1219 196.806 33.2413C196.973 33.8258 197.101 34.4691 197.05 34.9488C197.013 35.2538 196.504 35.6306 195.778 36.0184C195.05 37.4979 189.211 40.3522 185.947 42.078C182.33 43.9858 177.382 43.0319 177.382 40.1684C177.382 37.3086 180.048 37.8784 180.618 39.2145C180.832 39.7126 181.476 39.3505 182.345 38.7238C181.441 37.8416 181.456 36.4319 181.65 35.3494C180.559 34.8697 182.258 30.6003 180.048 29.8651C177.764 29.0987 175.098 33.109 175.478 30.6242C175.859 28.143 179.285 26.0459 177.192 22.802C175.098 19.5581 171.293 19.5581 170.53 22.0374C169.769 24.5205 167.104 23.3754 166.155 25.2832C165.203 27.1909 164.25 31.3887 165.013 34.4452C165.771 37.4961 164.822 39.0216 161.968 40.74C159.112 42.4566 157.618 38.1136 158.73 32.5356C159.493 28.7146 161.587 25.0939 159.682 25.0939C157.777 25.0939 162.157 20.512 166.153 19.5581C170.149 18.6005 175.098 18.9865 175.098 17.8396C175.098 17.6062 175.28 17.4537 175.582 17.3471C174.768 16.7001 173.863 16.0955 173.137 15.6433C173.062 15.8859 172.908 16.1157 172.624 16.3105C171.056 17.4059 171.482 14.5902 168.627 14.5902C165.77 14.5902 162.917 17.2607 160.633 16.1212C158.349 14.9743 159.491 13.4489 157.398 13.4489C155.303 13.4489 158.921 9.4404 155.875 11.1588C152.83 12.8773 148.262 17.0751 146.17 15.1673C144.075 13.2596 142.172 15.7408 140.649 14.2116C139.125 12.6825 145.976 8.48836 149.213 8.67767C150.01 8.72178 150.736 8.37257 151.416 7.82304C149.715 7.19815 146.205 5.82339 145.279 6.95922C144.137 8.35787 142.489 7.46281 141.6 6.32147C140.713 5.17645 139.571 6.70191 138.048 4.92465C136.524 3.1382 135.003 4.41371 134.114 4.79232C133.227 5.17645 132.084 4.15641 130.433 3.52417C128.785 2.88457 130.053 1.23229 128.657 0.214089C127.262 -0.804113 127.181 2.14022 127.181 2.14022L8.90523 2.77981C9.03905 2.98014 9.17286 3.17496 9.32501 3.33486C10.7512 4.86216 9.60914 6.00351 10.0858 7.81936C10.5624 9.63154 10.1811 12.2065 8.75308 12.2065C7.32693 12.2065 7.13628 10.5873 8.18115 10.012C9.22786 9.4404 8.65776 7.34151 7.61106 7.34151C7.00063 7.34151 6.75316 6.62288 6.77883 5.78112C4.83757 6.31963 2.60484 6.07335 0 5.76274C0.0421614 5.87301 0.0824898 5.98145 0.0916553 6.10275C0.186977 7.24593 0.757073 9.82085 2.28038 11.8242C3.8037 13.8293 2.75516 15.0699 4.18315 15.8327C5.61114 16.5954 5.51582 17.4555 4.18315 17.2607C2.85048 17.0732 3.80186 18.3138 3.32892 21.1791C2.85231 24.0426 2.94764 29.9515 2.66167 31.771C2.37571 33.5795 0.280465 36.5404 1.51965 38.4481C2.75516 40.3559 3.61305 43.0264 2.9458 45.412C2.28038 47.7976 2.37387 49.2256 3.42058 51.0397C4.46728 52.8537 3.61122 56.002 4.75508 56.6692C5.8971 57.34 6.94381 58.6725 7.99051 60.3891C9.03721 62.1094 9.9886 61.0581 10.1774 62.7766C10.368 64.4932 10.368 64.7799 11.8895 65.447C13.4147 66.1142 12.4615 67.829 12.4615 68.7847C12.4615 69.7367 14.4595 71.4588 16.9342 73.6515C19.4071 75.8441 17.3137 77.6563 19.1211 77.6563C20.9304 77.6563 22.6425 78.7076 24.45 79.8526C26.2574 80.9976 26.8293 80.3268 28.0667 80.6135C29.3022 80.9002 31.5881 83.5725 32.0629 85.3847C32.2865 86.2375 32.578 87.1344 33.0271 88.1011L42.8929 86.8036C42.8929 86.8036 45.945 88.9466 47.6718 89.3527C49.4004 89.7589 58.7529 93.2234 58.7529 93.2234L70.9522 93.1168L72.3747 91.2862H79.0857C79.0857 91.2862 83.355 95.4638 83.9654 95.6733C84.5759 95.8736 86.7114 97.809 86.7114 99.0348C86.7114 100.257 87.2192 101.277 88.2366 101.786C89.2521 102.295 92.7094 104.538 93.2171 104.332C93.7249 104.133 94.7441 100.257 96.5717 100.362C98.403 100.461 103.384 101.885 104.197 104.742C105.009 107.598 107.448 109.943 108.263 110.551C109.075 111.161 108.67 112.895 109.281 113.815C109.889 114.732 109.788 116.464 110.498 116.464C111.213 116.464 114.872 118.708 116.498 118.603C116.983 118.576 117.623 118.868 118.283 119.272C118.481 115.865 114.982 115.289 117.042 113.723C119.421 111.908 116.947 110.382 118.089 109.619C119.233 108.857 121.229 108.092 121.229 106.949C121.229 105.804 122.276 105.804 123.797 105.995C125.32 106.182 128.174 103.51 127.984 102.463C127.793 101.413 128.268 101.226 130.077 101.602C131.885 101.987 131.601 99.5017 132.743 99.8858C133.885 100.266 134.838 100.935 134.931 100.077C135.025 99.2186 136.169 99.4098 137.025 100.555C137.881 101.698 140.354 101.987 140.544 100.652C140.735 99.316 142.163 100.652 143.4 101.988C144.636 103.325 145.208 102.94 147.015 103.036C148.824 103.133 148.824 102.654 148.918 101.511C149.013 100.367 150.916 103.99 152.725 104.181C154.533 104.374 153.107 103.036 151.774 101.988C150.441 100.939 152.058 100.459 150.916 99.6028C149.774 98.7426 152.342 97.5958 154.626 97.6968C156.91 97.7887 156.815 98.364 157.673 97.0278C158.529 95.688 159.385 97.0278 159.385 98.171C159.385 99.3179 163.097 97.5057 165.095 97.5057C167.093 97.5057 168.901 99.2205 169.091 100.369C169.282 101.512 170.615 102.086 172.043 100.843C173.469 99.6046 174.706 98.1729 176.039 99.5053C177.371 100.843 178.702 102.656 180.321 104.278C181.938 105.898 179.56 107.906 180.416 109.143C181.274 110.384 180.321 112.102 182.224 113.439C184.126 114.775 182.414 117.541 183.938 117.923C185.461 118.303 186.696 120.687 186.887 121.641C187.078 122.595 189.932 123.836 190.122 122.215C190.313 120.594 191.838 118.682 192.027 117.158C192.218 115.633 190.885 110.193 189.648 108.476C188.412 106.758 189.934 106.374 188.412 104.376C186.889 102.367 185.937 98.8382 186.033 95.9766C186.128 93.1131 189.459 88.4393 191.076 87.0057C192.694 85.5795 194.502 86.3404 194.883 84.8131C195.264 83.2876 197.262 81.3817 198.403 81.3817C199.545 81.3817 200.78 81.6647 200.971 80.4278C201.161 79.1872 203.064 77.6563 205.539 77.2777C208.014 76.8954 206.586 75.5555 205.92 74.4142C205.255 73.2692 206.492 72.1242 206.967 72.8851C207.443 73.6515 208.967 73.7452 209.916 73.0762C210.868 72.409 213.058 70.5987 210.963 70.5031C208.868 70.4076 208.393 69.5474 209.63 69.0696C210.866 68.5954 209.821 66.3053 208.107 66.1142C206.393 65.9231 206.965 65.0684 208.012 64.0116C209.058 62.964 206.488 61.2492 205.253 60.3873C204.016 59.529 206.014 59.0529 206.965 58.8618C207.916 58.6707 207.156 54.2799 207.632 53.2323C208.107 52.1847 209.726 52.1847 209.06 53.2323C208.393 54.2781 207.442 55.9983 208.679 57.4282C209.916 58.86 210.298 60.3854 209.821 62.5817C209.344 64.778 210.298 64.2064 211.724 61.3393C213.152 58.4777 213.341 55.9983 212.391 55.7098C211.438 55.4268 211.533 52.5633 212.582 53.8976C213.627 55.2356 214.008 55.4268 215.626 53.7065C217.243 51.9899 218.957 49.0363 217.911 48.3655C216.864 47.6983 218.387 47.0275 220.29 47.1286C222.193 47.2223 226.284 45.9781 226.57 45.4083C227.499 43.5447 220.004 46.2666 220.004 45.2172C220.004 44.1659 224.763 43.1164 226.951 43.0245C229.14 42.929 228.095 39.9718 229.045 41.2105C229.996 42.4511 231.424 42.2581 232.66 41.4972C233.899 40.7345 232.947 38.54 231.52 38.1614C230.093 37.7755 232.566 36.8216 232.091 35.9651C231.615 35.105 233.045 31.6699 234.85 31.2913C236.66 30.9109 235.803 29.7622 237.325 29.7622C238.846 29.7622 239.132 27.95 240.463 26.6157C241.796 25.2777 243.7 28.7109 245.794 26.805C246.65 26.0239 247.81 25.1564 249 24.3955C244.124 17.9334 245.504 13.6106 245.387 12.4362Z" fill="#FF6B13"/>
</mask>
<g mask="url(#mask0_1696_4230)">
<path d="M261 -29.1675H-11V152.168H261V-29.1675Z" fill="#E4E4E4"/>
<path d="M261 -6.5022H-11V16.1625H261V-6.5022Z" fill="#D80027"/>
<path d="M261 38.8315H-11V61.4963H261V38.8315Z" fill="#D80027"/>
<path d="M261 84.1626H-11V106.827H261V84.1626Z" fill="#D80027"/>
<path d="M125 -29.1675H-11V68.4747H125V-29.1675Z" fill="#2E52B2"/>
<path d="M42.031 10.8323L39.8406 17.5707H32.7559L38.4886 21.733L36.2982 28.4708L42.031 24.3085L47.76 28.4708L45.5701 21.733L51.3029 17.5707H44.2176L42.031 10.8323Z" fill="#E4E4E4"/>
<path d="M44.2176 41.887L42.031 35.1492L39.8406 41.887H32.7559L38.4886 46.0499L36.2982 52.7877L42.031 48.6249L47.76 52.7877L45.5701 46.0499L51.3029 41.887H44.2176Z" fill="#E4E4E4"/>
<path d="M14.2747 41.887L12.0876 35.1492L9.89725 41.887H2.8125L8.54522 46.0499L6.35487 52.7877L12.0876 48.6249L17.8171 52.7877L15.6273 46.0499L21.359 41.887H14.2747Z" fill="#E4E4E4"/>
<path d="M12.0876 10.8323L9.89725 17.5707H2.8125L8.54522 21.733L6.35487 28.4708L12.0876 24.3085L17.8171 28.4708L15.6273 21.733L21.359 17.5707H14.2747L12.0876 10.8323Z" fill="#E4E4E4"/>
<path d="M42.031 -13.4861L39.8406 -6.74717H32.7559L38.4886 -2.5843L36.2982 4.15354L42.031 -0.00933075L47.76 4.15354L45.5701 -2.5843L51.3029 -6.74717H44.2176L42.031 -13.4861Z" fill="#E4E4E4"/>
<path d="M12.0876 -13.4861L9.89725 -6.74717H2.8125L8.54522 -2.5843L6.35487 4.15354L12.0876 -0.00933075L17.8171 4.15354L15.6273 -2.5843L21.359 -6.74717H14.2747L12.0876 -13.4861Z" fill="#E4E4E4"/>
<path d="M71.9718 10.8323L69.782 17.5707H62.6973L68.4294 21.733L66.2402 28.4708L71.9718 24.3085L77.7019 28.4708L75.5115 21.733L81.2443 17.5707H74.1595L71.9718 10.8323Z" fill="#E4E4E4"/>
<path d="M74.1595 41.887L71.9718 35.1492L69.782 41.887H62.6973L68.4294 46.0499L66.2402 52.7877L71.9718 48.6249L77.7019 52.7877L75.5115 46.0499L81.2443 41.887H74.1595Z" fill="#E4E4E4"/>
<path d="M104.102 41.887L101.915 35.1492L99.7248 41.887H92.6406L98.3723 46.0499L96.1825 52.7877L101.915 48.6249L107.645 52.7877L105.454 46.0499L111.187 41.887H104.102Z" fill="#E4E4E4"/>
<path d="M101.915 10.8323L99.7248 17.5707H92.6406L98.3723 21.733L96.1825 28.4708L101.915 24.3085L107.645 28.4708L105.454 21.733L111.187 17.5707H104.102L101.915 10.8323Z" fill="#E4E4E4"/>
<path d="M71.9718 -13.4861L69.782 -6.74717H62.6973L68.4294 -2.5843L66.2402 4.15354L71.9718 -0.00933075L77.7019 4.15354L75.5115 -2.5843L81.2443 -6.74717H74.1595L71.9718 -13.4861Z" fill="#E4E4E4"/>
<path d="M101.915 -13.4861L99.7248 -6.74717H92.6406L98.3723 -2.5843L96.1825 4.15354L101.915 -0.00933075L107.645 4.15354L105.454 -2.5843L111.187 -6.74717H104.102L101.915 -13.4861Z" fill="#E4E4E4"/>
</g>
</svg>
